PathFileType	4	(X/Y/Z)	C:\Users\Basilio\Documents\Thesis Gigler\squatting_fais\c3dfiles\076\SLS_back_pre1\markers_experimental.trc
DataRate	CameraRate	NumFrames	NumMarkers	Units	OrigDataRate	OrigDataStartFrame	OrigNumFrames
200.000000	200.000000	4	61	mm	200.000000	1444	2311
Frame#	Time	FHD			LBHD			RBHD			C7			T10			CLAV			LSHO			LUUPA			LMUPA			LDUPA			LLEP			LMEP			LRAD			LUL			LRFIN			RSHO			RUPA1			RMUPA			RDUPA			RLEP			RMEP			RRAD			RUL			RUFIN			LASI			RASI			USACR			LSACR			RSACR			LTHI1			LTHI2			LTHI3			LTHI4			LLFC			LMFC			LTIB1			LTIB2			LTIB3			LTIB4			LLMAL			LMMAL			LHEE			LMT1			LMT2			LMT5			RTHI			RTHI2			RTHI3			RTHI4			RLFC			RMFC			RTIB1			RTIB2			RTIB3			RTIB4			RLMAL			RMMAL			RHEE			RMT1			RMT2			RMT5			
		X1	Y1	Z1	X2	Y2	Z2	X3	Y3	Z3	X4	Y4	Z4	X5	Y5	Z5	X6	Y6	Z6	X7	Y7	Z7	X8	Y8	Z8	X9	Y9	Z9	X10	Y10	Z10	X11	Y11	Z11	X12	Y12	Z12	X13	Y13	Z13	X14	Y14	Z14	X15	Y15	Z15	X16	Y16	Z16	X17	Y17	Z17	X18	Y18	Z18	X19	Y19	Z19	X20	Y20	Z20	X21	Y21	Z21	X22	Y22	Z22	X23	Y23	Z23	X24	Y24	Z24	X25	Y25	Z25	X26	Y26	Z26	X27	Y27	Z27	X28	Y28	Z28	X29	Y29	Z29	X30	Y30	Z30	X31	Y31	Z31	X32	Y32	Z32	X33	Y33	Z33	X34	Y34	Z34	X35	Y35	Z35	X36	Y36	Z36	X37	Y37	Z37	X38	Y38	Z38	X39	Y39	Z39	X40	Y40	Z40	X41	Y41	Z41	X42	Y42	Z42	X43	Y43	Z43	X44	Y44	Z44	X45	Y45	Z45	X46	Y46	Z46	X47	Y47	Z47	X48	Y48	Z48	X49	Y49	Z49	X50	Y50	Z50	X51	Y51	Z51	X52	Y52	Z52	X53	Y53	Z53	X54	Y54	Z54	X55	Y55	Z55	X56	Y56	Z56	X57	Y57	Z57	X58	Y58	Z58	X59	Y59	Z59	X60	Y60	Z60	X61	Y61	Z61	

1445	7.22	-70.40319061279298	1378.100463867188	-1030.079345703125	-217.3486633300782	1319.746337890625	-1123.8544921875	-200.7828979492188	1324.904907226563	-973.1768798828127	-275.8353271484376	1237.805541992188	-1037.942749023438	-455.6405334472657	983.419860839844	-1013.408325195313	-183.3413238525391	1117.745239257813	-1046.676147460938	-230.1991729736329	1179.05078125	-1197.958740234375	-115.5228424072266	1106.07958984375	-1299.657104492188	-74.79666137695314	1113.792358398438	-1272.75390625	-56.05437088012697	1086.8916015625	-1325.093383789063	-13.0151481628418	1057.470703125	-1346.187622070313	-10.96991920471192	993.9979248046877	-1296.857055664063	237.5452880859376	1039.36865234375	-1322.99169921875	228.9583282470704	1041.24267578125	-1388.409545898438	316.7185058593751	1053.594360351563	-1334.317993164063	-205.3470306396485	1174.316528320313	-895.398376464844	-92.40538024902345	1089.96435546875	-797.3421020507815	-54.1760711669922	1114.801391601563	-815.568542480469	-26.62711715698243	1066.519287109375	-788.9805908203127	39.39578247070313	1055.59130859375	-788.3992919921877	34.53944396972657	1006.503479003906	-846.117858886719	282.3762512207032	1024.523803710938	-832.747985839844	271.8717346191407	1019.800842285156	-766.6886596679689	356.0069580078126	1034.761840820313	-816.599304199219	-387.3157653808595	773.2712402343752	-1119.017944335938	-381.2394409179688	748.2442016601564	-905.3247070312502	-514.4816284179689	883.6358642578127	-1000.899353027344	-537.4688110351564	862.3215332031252	-1028.89697265625	-532.1680297851564	856.9920654296877	-972.3364257812502	-425.2091369628907	664.6419067382814	-1193.085571289063	-351.0150451660157	625.3071899414064	-1192.229736328125	-315.4343566894532	655.4462890625001	-1173.97314453125	-338.5471191406251	565.3628540039064	-1183.212768554688	-239.3808135986329	444.7850341796876	-1152.357177734375	-220.8516082763672	459.9485168457032	-1041.274780273438	-232.0289001464844	315.9618835449219	-1054.935546875	-271.0987548828126	257.5200195312501	-1109.577758789063	-242.5542755126954	260.8706359863282	-1071.255493164063	-285.7216491699219	205.037094116211	-1025.5751953125	-380.8784484863282	105.0329208374024	-1058.879028320313	-350.3840942382813	122.0866470336914	-980.0388793945315	-442.3533630371095	96.39719390869143	-1006.856506347656	-241.2259368896485	52.95213317871095	-992.4585571289065	-235.7910766601563	50.21629333496095	-1031.451293945313	-260.5541381835938	43.73006820678712	-1080.944946289063	-454.8453674316407	521.8706054687501	-836.8228759765627	-413.1771850585939	466.9557495117189	-840.3811645507815	-380.9310607910157	469.6744689941407	-852.8552856445315	-442.413299560547	389.6963195800782	-856.5272216796877	-445.547088623047	349.2798156738282	-866.9642333984377	-438.3000793457032	341.2937622070313	-982.0378417968752	-551.8385620117189	282.9548645019532	-896.5271606445315	-637.7547607421876	346.7123718261719	-876.4367675781252	-636.3385620117189	302.0218811035157	-886.5013427734377	-678.4183959960939	287.6951599121094	-927.6800537109377	-821.6682128906252	336.4709167480469	-903.3320312500002	-797.6360473632815	320.8114624023438	-984.417663574219	-838.389831542969	398.3920288085939	-944.986755371094	-861.048278808594	200.6864929199219	-995.3999023437502	-865.0540771484377	187.4537353515625	-948.7588500976565	-890.9428710937502	211.1101684570313	-897.2475585937502	
1446	7.225000000000001	-69.72680664062501	1376.907592773438	-1030.129272460938	-216.705551147461	1318.984008789063	-1123.991577148438	-200.2310028076172	1324.047119140625	-973.3135986328127	-275.1912841796876	1236.932739257813	-1038.10595703125	-455.3081054687501	982.9250488281252	-1013.303039550781	-182.9499969482422	1116.736450195313	-1046.755737304688	-229.6454162597657	1178.274536132813	-1198.061157226563	-115.0812683105469	1105.407958984375	-1299.671264648438	-74.3876190185547	1112.982299804688	-1272.7783203125	-55.70621871948244	1086.131103515625	-1325.131469726563	-12.60006618499756	1056.665649414063	-1346.077758789063	-10.45226383209229	993.1921386718752	-1296.782592773438	238.0577697753907	1038.730224609375	-1322.971801757813	229.3081207275391	1040.531127929688	-1388.368530273438	317.1691894531251	1052.967407226563	-1334.29345703125	-204.7641601562501	1173.422119140625	-895.5820922851565	-91.78942108154298	1089.147216796875	-797.3945922851565	-53.5592613220215	1113.924194335938	-815.7658691406252	-26.00993919372559	1065.71630859375	-789.0911865234377	39.96421813964844	1054.871948242188	-788.6555175781252	35.21083068847657	1005.749633789063	-846.2962646484377	283.1493835449219	1023.912780761719	-832.9732055664065	272.4836425781251	1019.130981445313	-766.9399414062501	356.6466369628907	1033.755615234375	-816.5187988281252	-387.2259826660157	772.7475585937502	-1119.130493164063	-381.1777343750001	747.4769287109376	-905.2994384765627	-514.1859741210939	883.1121826171877	-1000.905212402344	-537.3403320312501	861.9399414062502	-1028.88232421875	-531.9705200195314	856.4517822265627	-972.2893066406252	-426.3761596679689	664.6652832031251	-1193.510620117188	-350.8972778320313	624.9756469726564	-1192.225341796875	-315.3607177734376	655.1301879882814	-1173.9345703125	-338.3610229492188	564.9282836914064	-1183.353515625	-240.3934631347657	444.8930969238282	-1152.618408203125	-220.6031951904297	459.8070068359376	-1041.302856445313	-231.8565521240235	315.8392333984376	-1054.953735351563	-270.9215087890626	257.4782409667969	-1109.5712890625	-242.4573059082032	260.8143005371094	-1071.245849609375	-285.6485290527344	204.9365844726563	-1025.544067382813	-380.8577270507813	105.0283508300782	-1058.880004882813	-350.3907165527344	122.0851058959961	-980.0151367187502	-442.3348083496095	96.37836456298831	-1006.88525390625	-241.2564849853516	52.9036102294922	-992.4526367187502	-235.8797760009766	50.2062339782715	-1031.465087890625	-260.4933776855469	43.81748962402344	-1080.868286132813	-455.0538635253907	521.2197265625001	-836.9197998046877	-413.4339294433595	466.1708984375001	-840.4890747070315	-381.0524597167969	469.0520935058595	-852.9622192382815	-442.7037048339845	388.8467102050782	-856.533142089844	-445.9736328125001	348.5053100585938	-867.1624145507815	-439.9579467773439	341.0598754882813	-982.8425903320315	-552.4558715820314	282.0494995117188	-896.8359985351565	-638.0707397460939	346.2119750976563	-876.2974243164065	-636.7222290039064	301.2668762207032	-886.429382324219	-678.9865722656251	286.9971008300782	-927.3359375000002	-822.038513183594	335.9938354492188	-902.812683105469	-798.0136718750002	320.1195983886719	-983.9248657226565	-838.9420166015627	397.8263549804689	-944.5035400390627	-861.491882324219	200.0414733886719	-994.888854980469	-865.6578369140627	187.0071411132813	-948.2310791015627	-891.3626708984377	210.7686004638672	-896.5759277343752	
1447	7.23	-69.14172363281251	1376.040161132813	-1030.215576171875	-215.8895568847657	1317.842651367188	-1124.13427734375	-199.620346069336	1323.03564453125	-973.4331665039065	-274.8427734375001	1236.381591796875	-1038.030029296875	-455.001434326172	982.3589477539065	-1013.204895019531	-182.4164428710938	1115.767211914063	-1046.923706054688	-229.1695251464844	1177.405151367188	-1198.107177734375	-114.7742156982422	1104.819580078125	-1299.774047851563	-73.94071197509767	1112.154174804688	-1272.848754882813	-55.47328948974611	1085.393920898438	-1325.242309570313	-12.90133953094483	1056.092651367188	-1346.409790039063	-10.13185501098633	992.4299926757815	-1296.738037109375	238.3567962646485	1038.098266601563	-1322.925659179688	229.9186248779297	1039.785522460938	-1388.18896484375	317.7074279785157	1052.210815429688	-1334.183349609375	-204.0348052978516	1172.532104492188	-895.6309204101565	-91.09878540039064	1088.502197265625	-797.294128417969	-52.89233398437501	1113.188842773438	-815.9310302734377	-25.25980377197266	1064.903442382813	-789.3138427734377	40.56175231933594	1054.15869140625	-788.6988525390627	35.81413269042969	1004.953552246094	-846.560241699219	283.8464050292969	1023.25048828125	-833.1893310546877	273.1643371582032	1018.425476074219	-767.1011352539064	357.2820739746094	1033.161987304688	-816.661560058594	-386.7019653320314	772.7598266601565	-1119.12890625	-381.1159057617188	746.6661376953126	-905.3616333007815	-514.2121582031251	882.796569824219	-1000.807739257813	-536.9521484375001	861.552429199219	-1028.692260742188	-531.4652099609376	855.8318481445315	-972.376403808594	-425.7289123535157	664.1048583984376	-1193.256225585938	-350.8212280273438	624.7717285156251	-1192.317749023438	-315.3616943359376	654.9099121093751	-1173.916137695313	-338.0766906738282	565.0055541992189	-1182.65234375	-238.8163299560547	444.5467224121095	-1152.439819335938	-220.4345092773438	459.6613769531251	-1041.313232421875	-231.6788940429688	315.8099670410157	-1054.992431640625	-270.7608337402344	257.4103393554688	-1109.588500976563	-242.3538055419922	260.7147827148438	-1071.235473632813	-285.5283508300782	204.8813934326172	-1025.559692382813	-380.8443908691407	105.0494384765625	-1058.813232421875	-350.3452453613282	122.1341171264649	-979.9807128906252	-442.355682373047	96.37993621826175	-1006.881286621094	-241.224105834961	52.87525939941408	-992.457946777344	-235.9402923583985	50.21506881713869	-1031.434814453125	-260.4740295410157	43.84513092041016	-1080.843994140625	-455.2851562500001	520.5415649414064	-836.957214355469	-413.6302490234376	465.4465332031251	-840.6199340820315	-381.4545898437501	467.981903076172	-853.174255371094	-443.1188049316407	388.131561279297	-856.6155395507815	-446.3529052734376	347.6525573730469	-867.2403564453127	-438.8298339843751	339.8326110839844	-982.0650024414065	-552.9888305664064	281.2021484375001	-897.1660156250002	-638.4300537109376	345.5101928710938	-876.0422363281252	-637.2216796875001	300.5452270507813	-886.3899536132815	-679.4108276367189	286.3938598632813	-927.052673339844	-822.407897949219	335.4824218750001	-902.3936767578127	-799.6616210937502	320.0710144042969	-984.042175292969	-839.3814086914065	397.2797851562501	-944.0612792968752	-862.1528320312502	199.5163574218751	-994.2973632812502	-866.2351684570315	186.4676208496094	-947.619812011719	-891.7796630859377	210.4758758544922	-895.9490966796877	
1448	7.235	-68.45952606201173	1374.983154296875	-1030.191528320313	-215.3042755126954	1316.84423828125	-1124.146484375	-198.8775634765626	1322.068969726563	-973.5222167968752	-274.2351074218751	1235.646362304688	-1038.056762695313	-454.7303161621095	981.688659667969	-1013.028076171875	-181.9443511962891	1114.843872070313	-1046.995483398438	-228.6581115722657	1176.498291015625	-1198.196411132813	-114.5971221923828	1104.059814453125	-1299.755859375	-73.37664794921876	1111.38671875	-1272.771240234375	-55.26565170288087	1084.641357421875	-1325.283935546875	-12.51584529876709	1055.429321289063	-1346.477294921875	-9.876706123352053	991.6326904296877	-1296.903442382813	238.8200836181641	1037.310546875	-1322.927734375	230.2469329833985	1039.170776367188	-1388.240356445313	318.5593872070313	1051.37060546875	-1333.895141601563	-203.4518432617188	1171.637084960938	-895.7889404296877	-90.55529022216798	1087.464965820313	-797.666198730469	-52.28980636596681	1112.164428710938	-816.113708496094	-24.56805038452149	1064.157958984375	-789.504089355469	41.1882553100586	1053.250366210938	-789.011657714844	36.52399063110352	1004.141723632813	-846.8045654296877	284.3733825683594	1022.60009765625	-833.3721923828127	273.8243408203126	1017.638488769531	-767.2108154296876	357.9112548828126	1032.805541992188	-817.0339355468752	-387.1571350097657	771.4302368164065	-1119.151489257813	-380.9644165039063	745.9480590820314	-905.361267089844	-514.0347900390626	881.9578857421877	-1000.658508300781	-536.9760742187501	860.6218872070315	-1028.730712890625	-531.6619262695314	855.403991699219	-972.253845214844	-425.6227111816407	663.8163452148439	-1193.263305664063	-350.6954345703126	624.5199584960939	-1192.39306640625	-315.3329467773438	654.6776733398439	-1173.915893554688	-337.9801635742188	564.6694946289064	-1182.69775390625	-239.2336883544922	444.5784606933595	-1152.59375	-220.1990051269532	459.6076660156251	-1041.27490234375	-231.5788879394532	315.7460021972657	-1054.943359375	-270.4536437988282	257.2599182128907	-1109.463012695313	-242.2334442138672	260.6004638671876	-1071.250610351563	-285.4583129882813	204.8075103759766	-1025.5126953125	-380.8258361816407	105.0680160522461	-1058.797607421875	-350.3771057128907	122.1230926513672	-979.954284667969	-442.3509216308595	96.39533996582034	-1006.8388671875	-241.2202301025391	52.89283370971681	-992.4215087890627	-235.9115753173829	50.17077255249025	-1031.421020507813	-260.5050659179688	43.79873275756837	-1080.848876953125	-455.4034118652345	519.8278198242189	-837.0015869140627	-413.8168334960939	464.6944274902345	-840.7046508789065	-381.5899047851563	467.3010559082032	-853.262878417969	-443.4195251464845	387.3719787597657	-856.768981933594	-446.6560974121095	347.0079956054688	-867.3725585937502	-439.7618103027345	339.1719360351563	-982.3305664062502	-553.3586425781251	280.7625122070313	-897.0219726562502	-638.7458496093751	344.9736938476563	-875.934509277344	-637.5985717773439	299.7989807128907	-886.0643310546877	-679.8177490234376	285.8575134277344	-926.9009399414065	-822.7883300781252	335.0590820312501	-901.9646606445315	-800.566833496094	319.5430908203126	-983.6897583007815	-839.8186035156252	396.732879638672	-943.703796386719	-862.7124633789065	199.0442657470704	-993.9905395507815	-866.8308105468752	185.9701385498047	-947.0398559570315	-892.1130371093752	210.0941162109376	-895.3391723632815	
